<svg width="16" height="17" viewBox="0 0 16 17" fill="#FF868E" xmlns="http://www.w3.org/2000/svg">
<path fill-rule="evenodd" clip-rule="evenodd" d="M2.62475 10.5087C3.76019 11.7703 5.49337 12.9988 7.96165 12.9988C10.4299 12.9988 12.1631 11.7703 13.2986 10.5087C13.8667 9.87746 14.2783 9.24444 14.5477 8.76919C14.682 8.53209 14.7801 8.33574 14.8438 8.20054C14.8757 8.13298 14.8989 8.08082 14.9137 8.04663C14.9211 8.02954 14.9264 8.01695 14.9296 8.00919L14.9329 8.00121L14.9333 8.00036C14.9332 8.00053 14.9331 8.00072 15.4283 8.1988C15.9235 8.39687 15.9234 8.3971 15.9233 8.39735L15.9231 8.39795L15.9225 8.39952L15.9206 8.40411L15.9145 8.419C15.9093 8.43142 15.902 8.44878 15.8924 8.47075C15.8734 8.51469 15.8456 8.57711 15.8087 8.65539C15.7349 8.81185 15.6247 9.03217 15.4757 9.29507C15.1783 9.81982 14.7233 10.5201 14.0914 11.2222C13.8963 11.439 13.6838 11.6565 13.4532 11.8694L15.2721 13.6883L14.5179 14.4426L12.6247 12.5494C11.5497 13.3284 10.183 13.9407 8.49499 14.0486L8.495 16.1988L7.42833 16.1988L7.42832 14.0486C5.74028 13.9407 4.37362 13.3284 3.29861 12.5494L1.40546 14.4426L0.651209 13.6883L2.4701 11.8694C2.23955 11.6565 2.02697 11.439 1.8319 11.2222C1.2 10.5201 0.745006 9.81981 0.447651 9.29507C0.298673 9.03216 0.188431 8.81185 0.114668 8.65538C0.0777664 8.57711 0.0499344 8.51468 0.030896 8.47075C0.0213751 8.44878 0.0140477 8.43142 0.00887967 8.419L0.00274077 8.40411L0.000876558 8.39952L0.00024424 8.39795L2.83322e-06 8.39735C-9.708e-05 8.3971 -0.000188764 8.39687 0.494999 8.1988C0.990187 8.00072 0.990112 8.00053 0.990045 8.00037L0.98995 8.00013L0.990391 8.00121L0.993684 8.00919C0.996914 8.01696 1.00222 8.02954 1.00962 8.04664C1.02444 8.08083 1.04765 8.13298 1.0795 8.20054C1.14323 8.33574 1.24132 8.53209 1.37568 8.76919C1.64498 9.24444 2.05666 9.87747 2.62475 10.5087ZM0.989904 8.00002C0.989887 7.99997 0.989903 8.00001 0.98995 8.00013Z" />
</svg>
